<?xml version="1.0" encoding="utf-8"?>
<svg version="1.1" id="Layer_1" xmlns:shaper="http://www.shapertools.com/namespaces/shaper" shaper:fusionaddin="version:1.6.10"
	 xmlns="http://www.w3.org/2000/svg" xmlns:xlink="http://www.w3.org/1999/xlink" x="0px" y="0px" viewBox="0 0 182.2 61.4"
	 style="enable-background:new 0 0 182.2 61.4;" xml:space="preserve">
<style type="text/css">
	.st0{fill:#FB6800;}
</style>
<path class="st0" d="M43.7,0l12.8,15.2v46.2h-5L0,0h19.8l23.8,28.4V0z"/>
<path class="st0" d="M70,61.4l14.2,0V15.2h8.6V0H48.6l12.8,15.2H70V61.4z"/>
<path class="st0" d="M126.7,28.9h-12.5l12.5-10.4V0H97.8v15.2h17l-17,14.3V38h17v11.3h-17v12h28.9V28.9z"/>
<path class="st0" d="M145.8,0l-14.2,0l-0.1,61.4h35.6l15-17.9L145.8,0z M161.3,48.6h-16.9l0-30.4l21.2,25.3L161.3,48.6z"/>
</svg>
