<?xml version="1.0" encoding="UTF-8"?>
<!DOCTYPE svg PUBLIC "-//W3C//DTD SVG 1.1//EN" "http://www.w3.org/Graphics/SVG/1.1/DTD/svg11.dtd">
<svg xmlns="http://www.w3.org/2000/svg" version="1.1" width="3840px" height="2160px" style="shape-rendering:geometricPrecision; text-rendering:geometricPrecision; image-rendering:optimizeQuality; fill-rule:evenodd; clip-rule:evenodd" xmlns:xlink="http://www.w3.org/1999/xlink">
<g><path style="opacity:0.989" fill="#ff6900" d="M 1989.5,858.5 C 2009.86,858.131 2030.19,858.631 2050.5,860C 2074.1,862.083 2095.1,870.417 2113.5,885C 2137.72,908.81 2143.55,936.643 2131,968.5C 2120.38,990.449 2103.88,1006.28 2081.5,1016C 2065.6,1022.39 2049.26,1027.06 2032.5,1030C 2053.46,1032.98 2072.46,1040.65 2089.5,1053C 2106.86,1069.42 2113.7,1089.59 2110,1113.5C 2103.18,1146.64 2084.68,1170.81 2054.5,1186C 2024.27,1200.89 1992.27,1208.89 1958.5,1210C 1922.85,1212.31 1887.51,1209.98 1852.5,1203C 1840.94,1200.2 1829.6,1196.7 1818.5,1192.5C 1817.33,1171.17 1817.17,1149.84 1818,1128.5C 1862.81,1148.71 1909.64,1155.87 1958.5,1150C 1975.13,1147.68 1990.47,1142.01 2004.5,1133C 2022.91,1117.37 2026.74,1098.87 2016,1077.5C 2009.75,1069.92 2001.92,1064.75 1992.5,1062C 1985.29,1060.02 1977.95,1058.69 1970.5,1058C 1949.18,1057.02 1927.84,1056.35 1906.5,1056C 1911.22,1038.94 1915.56,1021.78 1919.5,1004.5C 1949.8,1006.09 1979.47,1002.59 2008.5,994C 2021.88,989.616 2032.71,981.783 2041,970.5C 2052.32,946.086 2045.48,929.253 2020.5,920C 1997.41,915.713 1974.74,917.38 1952.5,925C 1939.57,929.547 1927.07,935.047 1915,941.5C 1904.57,927.652 1893.91,913.986 1883,900.5C 1880.9,908.384 1878.74,916.217 1876.5,924C 1842.16,924.167 1807.83,924.667 1773.5,925.5C 1748.99,1018.54 1724.32,1111.54 1699.5,1204.5C 1669.51,1205.5 1639.51,1205.83 1609.5,1205.5C 1633.62,1111.85 1658.29,1018.35 1683.5,925C 1650.17,924.333 1616.83,924.333 1583.5,925C 1523.71,1018.08 1464.04,1111.25 1404.5,1204.5C 1371.17,1205.5 1337.84,1205.83 1304.5,1205.5C 1292.75,1091.42 1280.42,977.422 1267.5,863.5C 1296.83,862.5 1326.16,862.167 1355.5,862.5C 1361.26,942.151 1366.59,1021.82 1371.5,1101.5C 1370.56,1112.83 1370.06,1124.16 1370,1135.5C 1379.52,1114.13 1389.85,1093.13 1401,1072.5C 1443.5,1002.83 1486,933.167 1528.5,863.5C 1649.83,862.5 1771.16,862.167 1892.5,862.5C 1890.8,870.94 1888.97,879.274 1887,887.5C 1919.34,870.991 1953.51,861.324 1989.5,858.5 Z"/></g>
<g><path style="opacity:0.991" fill="#ff6900" d="M 2213.5,862.5 C 2255.5,862.333 2297.5,862.5 2339.5,863C 2469.22,869.751 2518.05,936.251 2486,1062.5C 2464.29,1129.21 2419.79,1172.71 2352.5,1193C 2334.16,1198.33 2315.5,1202 2296.5,1204C 2238.52,1205.62 2180.52,1205.95 2122.5,1205C 2153.06,1090.91 2183.4,976.742 2213.5,862.5 Z M 2287.5,923.5 C 2303.17,923.333 2318.84,923.5 2334.5,924C 2385.65,930.716 2408.15,959.882 2402,1011.5C 2398.77,1058.82 2378.27,1096.32 2340.5,1124C 2316.56,1138.46 2290.56,1145.46 2262.5,1145C 2251.51,1145.5 2240.51,1145.67 2229.5,1145.5C 2248.83,1071.5 2268.17,997.5 2287.5,923.5 Z"/></g>
</svg>
